# xmcd
#
# Track frame offsets: 
#        150
#        11832
#        22518
#        34590
#        46800
#        60882
#        75096
#        89494
#        110197
#        126107
#        138006
#        157645
#
# Disc length: 2255 seconds
#
# Revision: 0
# Processed by: cddbd v1.5.2PL0 Copyright (c) Steve Scherf et al.
# Submitted via: ExactAudioCopy v1.3
#
DISCID=7808cd0c
DTITLE=Klinci s Ribnjaka - Božićni blues
DYEAR=2007
DGENRE=Blues
TTITLE0=Klinci s Ribnjaka and Jacques Houdek - Božićni blues (Please com
TTITLE0=e home for Christmas)
TTITLE1=Klinci s Ribnjaka and Mirko Fodor - Jingle bell rock
TTITLE2=Klinci s Ribnjaka and Oliver Dragojević - Bijeli Božić
TTITLE3=Klinci s Ribnjaka and Davor Gobac - Djed Mraz stiže u naš grad (
TTITLE3=Santa Claus is coming to town)
TTITLE4=Klinci s Ribnjaka and Maja Vučić - Mama je ljubila djeda Mraza (
TTITLE4=I saw mommy kissing Santa Claus)
TTITLE5=Klinci s Ribnjaka and Ricardo Luque - Božićni Calypso
TTITLE6=Klinci s Ribnjaka and Vladimir Kočiš Zec - Božićna želja ( Pipes
TTITLE6=of peace)
TTITLE7=Klinci s Ribnjaka and Tena Vodopija - Prošli Božić (Last Christm
TTITLE7=as)
TTITLE8=Klinci s Ribnjaka and Robert Mareković - Sretan Božić svakome (M
TTITLE8=erry Christmas everyone)
TTITLE9=Klinci s Ribnjaka and Gabi Novak - Silvestarska noć
TTITLE10=Klinci s Ribnjaka and Ivana Kindl - Happy New Year
TTITLE11=Klinci s Ribnjaka and Ivica Premelč - Božićni blues (Please com
TTITLE11=e home for Christmas)
EXTD=
EXTT0=
EXTT1=
EXTT2=
EXTT3=
EXTT4=
EXTT5=
EXTT6=
EXTT7=
EXTT8=
EXTT9=
EXTT10=
EXTT11=
PLAYORDER=
